<?xml version="1.0" standalone="no"?>
<!DOCTYPE svg PUBLIC "-//W3C//DTD SVG 20010904//EN"
 "http://www.w3.org/TR/2001/REC-SVG-20010904/DTD/svg10.dtd">
<svg version="1.0" xmlns="http://www.w3.org/2000/svg"
 width="706.000000pt" height="706.000000pt" viewBox="0 0 706.000000 706.000000"
 preserveAspectRatio="xMidYMid meet">
<metadata>
Created by potrace 1.14, written by Peter Selinger 2001-2017
</metadata>
<g transform="translate(0.000000,706.000000) scale(0.100000,-0.100000)"
fill="#000000" stroke="none">
<path d="M3375 6650 c-3 -5 -20 -10 -36 -10 -16 0 -41 -7 -54 -16 -14 -9 -25
-13 -25 -9 0 3 -7 -1 -16 -9 -8 -9 -20 -14 -25 -10 -5 3 -13 -5 -18 -18 -5
-13 -16 -30 -25 -37 -9 -7 -16 -20 -16 -27 0 -8 -4 -14 -10 -14 -5 0 -15 -19
-22 -42 -7 -24 -29 -74 -49 -113 -43 -80 -66 -91 -108 -52 -57 52 -111 67
-241 67 l-120 0 -37 -35 c-20 -19 -42 -35 -49 -35 -6 0 -19 -9 -29 -20 -13
-15 -31 -20 -65 -20 -44 0 -95 -20 -175 -70 -16 -10 -37 -19 -46 -19 -8 -1
-28 -14 -44 -31 -16 -16 -35 -30 -43 -30 -7 0 -37 -25 -66 -55 -29 -30 -57
-55 -63 -55 -6 0 -57 -47 -114 -105 -81 -83 -109 -105 -130 -105 -15 0 -31 -4
-34 -10 -3 -5 -28 -10 -56 -10 -27 0 -49 5 -49 10 0 6 -16 10 -35 10 -24 0
-39 6 -47 20 -15 23 -28 26 -28 6 0 -22 111 -124 143 -131 50 -12 39 -32 -85
-155 -43 -43 -78 -84 -78 -91 0 -8 -9 -20 -20 -27 -11 -7 -20 -18 -20 -25 0
-7 -16 -28 -35 -47 -19 -19 -35 -39 -35 -44 0 -20 -179 -201 -199 -201 -11 0
-23 -3 -27 -7 -4 -5 -14 -8 -21 -8 -8 0 -21 -7 -29 -15 -9 -8 -28 -15 -44 -15
-34 0 -60 -9 -60 -21 0 -5 6 -9 14 -9 8 0 28 -16 45 -36 31 -35 130 -94 157
-94 18 0 18 -24 -1 -40 -17 -14 -45 -67 -45 -87 0 -7 -4 -13 -10 -13 -5 0 -10
-9 -10 -20 0 -11 -4 -20 -10 -20 -5 0 -10 -8 -10 -18 0 -22 -27 -79 -41 -87
-5 -4 -9 -33 -9 -65 0 -32 -5 -62 -10 -65 -13 -8 -13 -312 0 -320 5 -3 10 -19
10 -35 0 -16 5 -32 10 -35 6 -3 10 -14 10 -24 0 -20 50 -124 62 -129 4 -2 8
-9 8 -16 0 -7 9 -21 20 -31 12 -11 20 -31 20 -51 0 -18 5 -36 10 -39 6 -3 10
-27 10 -53 0 -26 7 -56 15 -66 8 -11 15 -34 15 -51 0 -17 4 -35 9 -41 5 -5 11
-29 14 -54 8 -79 50 -200 69 -200 4 0 8 -8 9 -17 0 -10 8 -30 17 -44 38 -59
57 -85 74 -100 10 -9 18 -22 18 -29 0 -7 13 -26 30 -42 17 -15 30 -34 30 -41
0 -19 53 -67 73 -67 10 0 17 8 17 19 0 10 6 24 13 30 14 11 20 1 57 -89 5 -14
14 -32 18 -40 8 -14 19 -34 41 -78 5 -9 17 -36 27 -59 11 -24 22 -43 27 -43 4
0 7 -16 7 -35 0 -19 5 -35 10 -35 6 0 10 -12 10 -26 0 -21 4 -24 20 -19 16 5
20 2 20 -18 0 -14 7 -30 15 -37 8 -7 15 -21 15 -31 0 -11 5 -19 10 -19 6 0 10
-13 10 -30 0 -16 5 -30 10 -30 6 0 10 -11 10 -25 0 -13 9 -40 20 -60 11 -20
20 -44 20 -55 0 -10 4 -22 10 -25 15 -9 38 -66 45 -113 4 -23 11 -42 15 -42 5
0 10 -12 12 -27 2 -14 9 -28 16 -31 17 -5 15 36 -3 54 -8 9 -15 31 -15 49 0
19 -4 36 -9 39 -5 3 -12 42 -16 86 -4 44 -11 83 -16 86 -5 3 -9 27 -9 54 0 27
-5 50 -11 52 -6 2 -14 27 -17 56 -2 29 -9 55 -13 58 -5 3 -9 32 -9 64 0 32 -4
62 -10 65 -5 3 -10 30 -10 60 0 30 -4 57 -10 60 -5 3 -10 33 -10 65 0 32 -4
62 -10 65 -5 3 -10 28 -10 54 0 31 -5 53 -15 61 -18 15 -20 66 -3 76 6 4 14 2
16 -4 6 -18 27 -14 47 8 18 20 18 22 -3 61 -12 23 -22 47 -22 55 0 8 -4 14
-10 14 -5 0 -10 9 -10 20 0 11 -4 20 -10 20 -5 0 -12 11 -16 25 -3 14 -10 25
-15 25 -5 0 -9 18 -9 40 0 22 4 40 10 40 14 0 150 -142 150 -157 0 -8 5 -11
10 -8 6 3 10 21 10 40 0 19 -4 37 -10 40 -5 3 -10 17 -10 31 0 14 -7 32 -15
40 -8 9 -15 26 -15 39 0 13 -4 27 -10 30 -5 3 -10 17 -10 31 0 13 -4 24 -10
24 -5 0 -10 18 -10 39 0 22 -4 43 -10 46 -5 3 -10 24 -10 46 0 21 -4 39 -10
39 -5 0 -10 8 -10 18 0 9 -7 30 -15 46 -8 15 -15 44 -15 62 0 19 -4 34 -10 34
-12 0 -13 67 -1 74 4 3 17 -12 27 -34 10 -22 22 -40 27 -40 4 0 7 -8 7 -18 0
-11 9 -27 20 -37 11 -10 20 -23 20 -30 0 -6 11 -22 25 -35 14 -13 25 -29 25
-37 0 -23 124 -153 146 -153 7 0 20 -10 28 -21 14 -20 12 -24 -30 -66 -24 -25
-44 -51 -44 -58 0 -19 37 -25 51 -9 6 8 29 14 50 14 21 0 41 5 44 10 3 5 28
10 55 10 27 0 60 4 74 9 13 6 72 11 131 12 58 1 108 6 111 11 3 4 158 8 344 8
215 0 341 4 345 10 3 6 42 10 85 10 43 0 81 4 84 9 10 15 55 19 67 5 6 -8 24
-14 40 -14 16 0 29 -4 29 -10 0 -5 18 -10 39 -10 22 0 43 -4 46 -10 4 -6 97
-10 246 -10 249 0 269 3 269 43 0 40 790 41 1056 1 50 -7 65 9 35 35 -21 19
-28 41 -13 41 13 0 39 -32 47 -58 15 -50 56 -130 75 -147 11 -10 20 -26 20
-37 0 -10 4 -18 8 -18 5 0 15 -12 23 -27 8 -16 24 -38 37 -51 12 -13 22 -29
22 -36 0 -7 9 -21 20 -31 14 -13 17 -22 10 -29 -6 -6 -10 -67 -10 -147 0 -81
-4 -140 -10 -144 -5 -3 -10 -47 -10 -96 0 -70 -3 -91 -15 -95 -11 -5 -15 -24
-15 -79 0 -41 -4 -77 -10 -80 -5 -3 -10 -30 -10 -60 0 -30 -4 -57 -10 -60 -5
-3 -10 -35 -10 -71 0 -36 -4 -64 -10 -64 -5 0 -10 -21 -10 -46 0 -32 4 -44 13
-42 6 3 13 13 15 24 2 10 7 28 11 39 5 11 14 34 21 50 6 17 18 43 26 58 8 16
14 37 14 48 0 10 5 19 10 19 6 0 10 11 10 25 0 14 5 25 10 25 6 0 10 13 10 28
0 16 7 37 15 48 8 10 15 34 15 52 0 19 9 45 20 59 14 19 20 41 20 79 0 30 5
54 10 54 6 0 10 15 10 33 0 17 7 41 15 51 8 11 15 33 15 49 0 15 4 26 9 23 5
-3 12 26 15 64 4 38 11 72 17 75 5 4 9 19 9 35 0 16 5 32 10 35 6 3 10 17 10
30 0 13 5 27 10 30 6 3 10 24 10 46 0 35 3 39 24 39 24 0 106 70 106 90 0 5
11 29 25 54 23 41 25 55 25 168 -1 92 -4 128 -15 142 -8 11 -15 39 -15 62 0
24 -4 46 -10 49 -5 3 -10 21 -10 40 0 19 -4 37 -10 40 -5 3 -10 21 -10 40 0
19 -4 37 -10 40 -6 4 -10 55 -10 120 0 65 -4 116 -10 120 -6 4 -10 82 -10 200
l0 194 29 -10 c16 -6 37 -19 47 -30 9 -10 22 -19 29 -19 7 0 20 -9 30 -20 10
-11 24 -20 31 -20 7 0 19 -7 27 -15 10 -10 26 -12 51 -8 l36 6 -71 67 c-52 50
-81 88 -110 145 -21 43 -39 86 -39 96 0 10 -4 21 -10 24 -5 3 -10 17 -10 30 0
13 -4 27 -10 30 -5 3 -10 21 -10 40 0 19 -4 37 -10 40 -5 3 -10 16 -10 28 0
12 -7 31 -15 41 -8 11 -15 30 -15 42 0 13 -4 26 -10 29 -5 3 -10 19 -10 36 0
16 -4 29 -10 29 -5 0 -10 12 -10 27 0 15 -9 36 -19 47 -21 23 -71 117 -71 135
0 6 -4 11 -8 11 -5 0 -20 21 -33 48 -31 63 -63 102 -266 325 -24 26 -43 54
-43 62 0 9 -9 15 -23 15 -13 0 -32 9 -42 20 -10 11 -22 20 -26 20 -12 0 -81
46 -109 73 -28 27 -110 67 -185 92 -27 9 -54 20 -60 24 -5 5 -40 12 -77 16
-37 3 -70 11 -73 16 -4 5 -53 9 -110 9 -79 0 -107 4 -119 15 -8 8 -21 15 -28
15 -7 0 -42 29 -77 65 -35 36 -69 65 -76 65 -7 0 -20 9 -30 20 -10 11 -26 20
-37 20 -10 0 -18 4 -18 9 0 13 -60 35 -91 33 -14 -1 -32 5 -39 13 -9 11 -32
15 -81 15 -39 0 -69 4 -69 10 0 6 -13 10 -30 10 -16 0 -30 -4 -30 -9 0 -5 -8
-11 -17 -15 -10 -3 -32 -15 -50 -25 l-32 -20 -7 22 c-9 28 -78 93 -121 114
-18 8 -33 19 -33 24 0 5 -7 9 -16 9 -10 0 -32 16 -51 35 -19 19 -40 35 -48 35
-8 0 -15 5 -15 10 0 6 -30 10 -69 10 -39 0 -73 -4 -76 -10z m371 -254 c8 -8
14 -18 14 -23 0 -4 -32 -23 -71 -41 -38 -18 -73 -40 -76 -48 -8 -20 -57 -17
-77 5 -20 22 -12 42 33 94 23 24 31 27 94 27 46 0 73 -5 83 -14z m656 -2436
c17 -16 25 -30 18 -30 -15 0 -60 39 -60 52 0 14 9 9 42 -22z m82 -55 c8 -8 19
-15 25 -15 6 0 21 -11 33 -25 12 -14 30 -25 40 -25 10 0 18 -4 18 -10 0 -20
-36 -10 -54 15 -13 17 -25 23 -38 20 -10 -4 -18 -1 -18 5 0 16 -23 37 -46 43
-17 4 -17 5 3 6 12 0 28 -6 37 -14z m-2124 -22 c1 -13 108 -123 120 -123 17 0
70 -56 70 -73 0 -14 -20 -27 -40 -27 -14 0 -70 57 -70 72 0 7 -14 26 -30 42
-17 16 -30 37 -30 45 0 9 -9 23 -20 31 -21 15 -27 40 -10 40 6 0 10 -3 10 -7z
m1496 -37 c15 -16 18 -26 6 -26 -4 0 -13 9 -20 20 -14 23 -7 26 14 6z m109
-96 c10 -11 23 -20 30 -20 6 0 20 -8 31 -17 23 -22 60 -39 97 -47 20 -5 27
-12 27 -30 0 -27 -34 -63 -45 -47 -3 6 -13 11 -20 11 -17 0 -175 154 -175 170
0 5 -6 10 -14 10 -8 0 -16 7 -19 15 -8 19 63 -17 88 -45z m688 40 c20 -18 -13
-18 -34 1 l-24 20 25 -7 c14 -3 29 -10 33 -14z m-280 -19 c4 -1 7 -5 7 -11 0
-12 -47 -13 -54 -1 -8 12 3 20 22 16 9 -2 20 -4 25 -4z m-2029 -97 c17 -6 23
-44 7 -44 -12 0 -41 29 -41 41 0 10 12 12 34 3z"/>
<path d="M4660 3250 c-14 -5 -50 -14 -80 -21 -30 -6 -59 -15 -65 -19 -5 -4
-28 -13 -50 -20 -22 -7 -45 -18 -53 -24 -99 -83 -121 -106 -132 -133 -8 -18
-17 -33 -22 -33 -4 0 -8 -7 -8 -15 0 -8 -4 -15 -10 -15 -5 0 -10 -11 -10 -25
0 -14 5 -25 10 -25 6 0 10 9 10 20 0 11 5 20 10 20 6 0 10 7 10 16 0 18 23 44
39 44 14 0 14 1 -4 -50 -37 -104 -4 -227 85 -318 51 -52 79 -67 159 -85 199
-46 383 117 369 330 -8 126 -104 254 -213 284 -66 19 -68 19 -62 26 14 13 151
12 167 -2 8 -7 41 -16 73 -20 31 -4 57 -11 57 -16 0 -5 6 -9 13 -9 8 0 24 -11
37 -25 13 -14 29 -25 37 -25 7 0 13 -5 13 -11 0 -6 16 -27 35 -47 19 -20 40
-49 46 -64 6 -16 15 -28 20 -28 5 0 9 -13 9 -29 0 -16 7 -34 15 -41 8 -7 15
-21 15 -32 0 -33 25 -14 28 22 8 81 -127 264 -232 313 -112 52 -252 78 -316
57z m-140 -256 c19 -35 3 -59 -41 -59 -29 0 -34 4 -37 26 -6 54 54 79 78 33z
m20 -294 c0 -5 28 -10 62 -12 36 -2 63 -8 65 -15 3 -8 -13 -11 -54 -10 -45 2
-64 7 -83 25 -19 18 -21 22 -7 22 9 0 17 -4 17 -10z"/>
<path d="M2655 3182 c-33 -1 -73 -9 -90 -16 -110 -50 -134 -65 -177 -106 -26
-25 -48 -52 -48 -59 0 -8 -6 -19 -14 -25 -7 -6 -28 -37 -45 -69 -24 -45 -31
-71 -31 -113 0 -30 5 -54 10 -54 6 0 10 15 10 33 0 33 11 60 50 122 10 17 19
35 19 42 2 21 133 153 152 153 10 0 35 10 56 22 25 13 53 20 79 19 27 -1 45 4
54 14 13 16 52 19 85 6 16 -6 10 -12 -37 -33 -77 -36 -133 -89 -168 -163 -60
-125 -33 -277 65 -367 55 -51 87 -68 155 -83 56 -12 145 -3 165 16 5 5 15 9
23 9 25 0 90 54 120 100 41 63 56 125 50 217 -3 43 -9 86 -13 96 -4 9 -3 17 2
17 15 0 53 -36 53 -49 0 -6 5 -11 10 -11 14 0 13 4 -12 47 -53 89 -107 138
-203 183 -102 47 -175 59 -320 52z m73 -244 c35 -35 -15 -99 -53 -68 -30 25
-12 80 25 80 9 0 21 -5 28 -12z m147 -300 c41 9 45 8 45 -9 0 -37 -106 -59
-152 -31 -16 9 -28 24 -28 33 0 14 6 15 45 7 29 -6 61 -6 90 0z"/>
<path d="M4210 2889 c0 -11 5 -17 10 -14 6 3 10 13 10 21 0 8 -4 14 -10 14 -5
0 -10 -9 -10 -21z"/>
<path d="M4194 2839 c-3 -6 -1 -16 5 -22 8 -8 11 -5 11 11 0 24 -5 28 -16 11z"/>
<path d="M5414 2156 c-8 -22 3 -33 18 -18 9 9 9 15 0 24 -9 9 -13 7 -18 -6z"/>
<path d="M4348 1603 c-29 -4 -40 -30 -13 -30 8 0 15 4 15 9 0 4 7 8 15 8 8 0
15 5 15 10 0 6 -1 9 -2 9 -2 -1 -15 -4 -30 -6z"/>
<path d="M4301 1594 c0 -6 -7 -11 -13 -11 -7 0 -44 -8 -83 -18 -38 -9 -95 -21
-125 -26 -30 -5 -64 -11 -75 -14 -78 -16 -304 -45 -322 -40 -13 3 -23 1 -23
-4 0 -8 -124 -6 -228 3 -36 3 -41 2 -31 -10 7 -8 28 -13 59 -12 33 2 52 -3 64
-15 15 -15 40 -17 181 -17 98 0 166 4 170 10 3 6 34 10 69 10 39 0 69 5 82 15
10 8 36 15 57 15 20 0 37 5 37 10 0 6 17 10 38 10 21 0 42 4 48 8 5 5 29 15
53 22 45 15 56 27 48 57 -3 10 -5 13 -6 7z"/>
<path d="M3320 1490 c0 -5 14 -10 32 -10 35 0 30 12 -7 17 -14 2 -25 -1 -25
-7z"/>
<path d="M4530 865 c-7 -8 -18 -15 -24 -15 -7 0 -24 -13 -39 -28 -24 -25 -27
-36 -27 -94 0 -37 -4 -70 -10 -73 -6 -4 -10 -75 -10 -181 0 -109 4 -174 10
-174 6 0 10 -17 10 -39 0 -40 22 -105 40 -116 18 -11 11 -38 -17 -67 -15 -15
-35 -28 -45 -28 -10 0 -18 -4 -18 -10 0 -5 -6 -10 -14 -10 -7 0 -19 -7 -26
-15 -11 -13 108 -15 1059 -15 l1071 0 0 29 c0 16 -7 34 -15 41 -9 7 -15 29
-15 51 0 22 -4 39 -10 39 -5 0 -10 15 -11 33 -1 17 -4 42 -7 55 -10 31 -271
292 -294 292 -10 0 -18 3 -18 8 0 9 -72 41 -111 49 -16 3 -32 10 -35 14 -3 5
-13 9 -24 9 -10 0 -38 11 -61 25 -24 14 -51 25 -60 25 -8 0 -34 9 -57 20 -22
11 -48 20 -56 20 -8 0 -18 5 -21 10 -3 5 -15 10 -25 10 -19 0 -80 29 -91 42
-3 4 -31 7 -62 6 -34 -1 -62 3 -69 10 -7 7 -39 12 -74 12 -35 0 -66 5 -69 10
-3 6 -37 10 -75 10 -38 0 -72 5 -75 10 -3 6 -32 10 -64 10 -31 0 -62 5 -68 11
-7 7 -93 12 -236 14 -124 2 -230 6 -235 9 -5 3 -15 -1 -22 -9z"/>
<path d="M3075 680 c-3 -5 -28 -10 -55 -10 -27 0 -52 -4 -55 -10 -3 -5 -17
-10 -30 -10 -13 0 -30 -7 -39 -15 -8 -8 -26 -15 -40 -15 -14 0 -27 -4 -30 -9
-4 -5 -29 -12 -56 -16 -28 -4 -57 -14 -65 -22 -8 -8 -15 -11 -15 -8 0 4 -11 0
-25 -9 -13 -9 -33 -16 -44 -16 -11 0 -23 -4 -26 -10 -3 -5 -19 -10 -36 -10
-16 0 -29 -4 -29 -10 0 -5 -11 -10 -24 -10 -22 0 -45 -9 -139 -56 -16 -8 -37
-14 -47 -14 -9 0 -23 -7 -30 -15 -14 -17 -67 -45 -85 -45 -7 0 -16 -7 -19 -16
-4 -9 -9 -14 -13 -11 -5 6 -62 -21 -73 -34 -5 -7 -58 -38 -96 -56 -11 -6 -29
-15 -41 -21 -13 -7 -29 -12 -36 -12 -7 0 -19 -9 -27 -20 -8 -11 -22 -20 -30
-20 -9 0 -27 -11 -40 -25 -13 -14 -29 -25 -35 -25 -7 0 -20 -9 -30 -20 -10
-11 -23 -20 -29 -20 -6 -1 -33 -21 -61 -45 l-49 -45 767 0 c609 0 767 3 765
13 -4 24 13 121 28 148 21 41 20 362 -1 412 -8 20 -15 50 -15 66 0 20 -7 34
-19 41 -25 13 -68 13 -76 0z"/>
</g>
</svg>
